# xmcd
#
# Track frame offsets: 
#        150
#        17475
#        32450
#        52791
#        76005
#        94252
#        114234
#        131073
#        149102
#        165321
#        183148
#        199057
#        216038
#        236563
#
# Disc length: 3263 seconds
#
# Revision: 3
# Processed by: cddbd v1.5PL3 Copyright (c) Steve Scherf et al.
# Submitted via: ExactAudioCopy v0.90b4
#
DISCID=ab0cbd0e
DTITLE=The Charlie Daniels Band - Freedom And Justice For All
DYEAR=2003
DGENRE=Country
TTITLE0=My Beautiful America (Recitation)
TTITLE1=In America
TTITLE2=Summer Of '68
TTITLE3=Let Freedom Ring
TTITLE4=The Last Fallen Hero
TTITLE5=Freedom And Justice For All
TTITLE6=American Farmer
TTITLE7=God Bless The Mother
TTITLE8=Simple Man
TTITLE9=Still In Saigon
TTITLE10=This Ain't No Rag, It's A Flag
TTITLE11=(What This World Needs Is) A Few More Rednecks
TTITLE12=America, I Believe In You
TTITLE13=Star Spangled Banner (Instrumental)
EXTD=YEAR: 2003
EXTT0=
EXTT1=
EXTT2=
EXTT3=
EXTT4=
EXTT5=
EXTT6=
EXTT7=
EXTT8=
EXTT9=
EXTT10=
EXTT11=
EXTT12=
EXTT13=
PLAYORDER=
